<?xml version="1.0" encoding="UTF-8" standalone="no"?>
<svg width="24px" height="24px" viewBox="0 0 24 24" version="1.1" xmlns="http://www.w3.org/2000/svg" xmlns:xlink="http://www.w3.org/1999/xlink">
    <!-- Generator: sketchtool 39 (31562) - http://www.bohemiancoding.com/sketch -->
    <title>530E7D2A-1101-4528-89BA-82CC8FD9242B</title>
    <desc>Created with sketchtool.</desc>
    <defs>
        <linearGradient x1="50%" y1="0%" x2="50%" y2="100%" id="linearGradient-1">
            <stop stop-color="#DADCE2" offset="0%"></stop>
            <stop stop-color="#000000" offset="100%"></stop>
        </linearGradient>
    </defs>
    <g id="X-Icons/Actions" stroke="none" stroke-width="1" fill="none" fill-rule="evenodd">
        <g id="Icons/Actions/ic-action-checkbox-off">
            <polygon id="Bounds" fill="url(#linearGradient-1)" opacity="0" points="0 0 24 0 24 24 0 24"></polygon>
            <path d="M6,4 L17,4 C18.66,4 20,5.34 20,7 L20,18 C20,19.66 18.66,21 17,21 L6,21 C4.34,21 3,19.66 3,18 L3,7 C3,5.34 4.34,4 6,4 L6,4 Z M6,5 C4.9,5 4,5.9 4,7 L4,18 C4,19.1 4.9,20 6,20 L17,20 C18.1,20 19,19.1 19,18 L19,7 C19,5.9 18.1,5 17,5 L6,5 L6,5 Z" id="Icon-Shape" fill="#BDC0CB"></path>
        </g>
    </g>
</svg>