<?xml version="1.0" encoding="UTF-8" standalone="no"?>
<svg width="24px" height="24px" viewBox="0 0 24 24" version="1.1" xmlns="http://www.w3.org/2000/svg" xmlns:xlink="http://www.w3.org/1999/xlink">
    <!-- Generator: sketchtool 39 (31504) - http://www.bohemiancoding.com/sketch -->
    <title>5D994C88-E4FA-4746-9CA0-839C40573C62</title>
    <desc>Created with sketchtool.</desc>
    <defs>
        <linearGradient x1="50%" y1="0%" x2="50%" y2="100%" id="linearGradient-1">
            <stop stop-color="#DADCE2" offset="0%"></stop>
            <stop stop-color="#000000" offset="100%"></stop>
        </linearGradient>
    </defs>
    <g id="X-Icons/Actions" stroke="none" stroke-width="1" fill="none" fill-rule="evenodd">
        <g id="Icons/Actions/ic-action-radio-off">
            <polygon id="Bounds" fill="url(#linearGradient-1)" opacity="0" points="0 0 24 0 24 24 0 24"></polygon>
            <path d="M11.5,18.4375 L11.5,18.4375 C14.7791907,18.4375 17.4375,15.7791907 17.4375,12.5 C17.4375,9.2208093 14.7791907,6.5625 11.5,6.5625 C8.2208093,6.5625 5.5625,9.2208093 5.5625,12.5 C5.5625,15.7791907 8.2208093,18.4375 11.5,18.4375 L11.5,18.4375 Z M11.5,19.4375 L11.5,19.4375 C7.66852455,19.4375 4.5625,16.3314755 4.5625,12.5 C4.5625,8.66852455 7.66852455,5.5625 11.5,5.5625 C15.3314755,5.5625 18.4375,8.66852455 18.4375,12.5 C18.4375,16.3314755 15.3314755,19.4375 11.5,19.4375 L11.5,19.4375 Z" id="Oval-37-Copy" fill="#BDC0CB"></path>
        </g>
    </g>
</svg>